<?xml version="1.0" encoding="UTF-8"?><svg id="Layer_2" xmlns="http://www.w3.org/2000/svg" viewBox="0 0 141.16 105.43"><defs><style>.cls-1{fill:#00e;}.cls-2{font-family:Montserrat-Regular, Montserrat;font-size:40px;}.cls-3{font-family:Montserrat-SemiBold, Montserrat;font-size:60px;font-weight:600;}.cls-4{letter-spacing:.06em;}.cls-5{letter-spacing:0em;}.cls-6{letter-spacing:0em;}.cls-7{letter-spacing:-.02em;}.cls-8{letter-spacing:0em;}</style></defs><g id="Layer_1-2"><path class="cls-1" d="m118.33,91.54c.48-4.21,4.67-7.66,8.89-7.31,5.98.48,11.57,2.4,13.53,1.7.64-.23.46-1.25-.12-1.6l-38.72-23.27c-.79-.48-1.74.31-1.43,1.18l15.36,42.48c.23.64,1.2,1.01,1.55.42,1.06-1.79.26-7.64.94-13.6Zm-4.67-13.57c2.02-2.3,5.65-1.95,7.18.7.93,1.6.73,3.68-.49,5.08-2.02,2.3-5.65,1.95-7.18-.7-.93-1.6-.73-3.68.5-5.08Z"/><text class="cls-1" transform="translate(4.88 51)"><tspan class="cls-3"><tspan x="0" y="0">Al</tspan><tspan class="cls-7" x="62.28" y="0">e</tspan><tspan class="cls-6" x="98.7" y="0">x</tspan></tspan><tspan class="cls-2"><tspan class="cls-5" x="-4.88" y="37">L</tspan><tspan class="cls-8" x="18.36" y="37">e</tspan><tspan class="cls-4" x="42.12" y="37">v</tspan><tspan x="66.2" y="37">y</tspan></tspan></text></g></svg>