<?xml version="1.0" encoding="UTF-8"?><svg id="Layer_2" xmlns="http://www.w3.org/2000/svg" viewBox="0 0 76.85 105.97"><defs><style>.cls-1{fill:#00e;stroke:#394fa2;stroke-miterlimit:10;}</style></defs><g id="Layer_1-2"><path class="cls-1" d="m24.87,82.05c7.17-6.94,19.95-6.94,27.12,0,10.15,9.82,17.46,21.67,22.06,23.33,1.5.54,2.71-1.58,2.18-3.09L40.61,2.04C39.88-.01,36.98-.01,36.25,2.04L.63,102.3c-.53,1.5.68,3.63,2.18,3.09,4.6-1.67,11.91-13.51,22.06-23.33Zm11.8-34.07c7.12-1.17,13.19,4.9,12.02,12.02-.71,4.31-4.18,7.79-8.5,8.5-7.12,1.17-13.19-4.9-12.02-12.02.71-4.31,4.19-7.79,8.5-8.5Z"/></g></svg>