<?xml version="1.0" encoding="UTF-8"?><svg id="Layer_2" xmlns="http://www.w3.org/2000/svg" viewBox="0 0 284.62 78.41"><defs><style>.cls-1{fill:#00e;}</style></defs><g id="Content"><path class="cls-1" d="m0,68.83l15.01-33.35h6.1l15.06,33.35h-6.48l-12.91-30.07h2.48l-12.87,30.07H0Zm6.91-7.72l1.67-4.86h18.01l1.67,4.86H6.91Z"/><path class="cls-1" d="m40.31,68.83v-35.35h5.96v35.35h-5.96Z"/><path class="cls-1" d="m66.51,69.16c-2.83,0-5.3-.56-7.41-1.69-2.11-1.13-3.75-2.68-4.91-4.65s-1.74-4.21-1.74-6.72.56-4.79,1.69-6.74c1.13-1.95,2.68-3.49,4.67-4.6,1.98-1.11,4.25-1.67,6.79-1.67s4.69.54,6.62,1.62c1.94,1.08,3.46,2.6,4.57,4.57s1.67,4.29,1.67,6.96c0,.25,0,.54-.02.86s-.04.62-.07.91h-21.2v-3.96h18.06l-2.33,1.24c.03-1.46-.27-2.75-.91-3.86-.64-1.11-1.5-1.98-2.6-2.62s-2.36-.95-3.79-.95-2.74.32-3.84.95c-1.1.64-1.95,1.52-2.57,2.64-.62,1.13-.93,2.45-.93,3.98v.95c0,1.52.35,2.88,1.05,4.05.7,1.18,1.68,2.08,2.95,2.72,1.27.64,2.73.95,4.38.95,1.43,0,2.72-.22,3.86-.67,1.14-.44,2.16-1.14,3.05-2.1l3.19,3.67c-1.14,1.33-2.58,2.36-4.31,3.07-1.73.71-3.71,1.07-5.93,1.07v.02Z"/><path class="cls-1" d="m80.47,68.83l11.2-14.58-.1,3.19-10.67-14.06h6.62l7.48,10.01h-2.53l7.53-10.01h6.43l-10.77,14.06.05-3.19,11.15,14.58h-6.72l-7.86-10.63,2.48.33-7.72,10.29h-6.58,0Z"/><path class="cls-1" d="m173.98,68.83v-33.35h6.19v28.11h17.44v5.24h-23.63Z"/><path class="cls-1" d="m213.19,69.16c-2.83,0-5.3-.56-7.41-1.69-2.11-1.13-3.75-2.68-4.91-4.65s-1.74-4.21-1.74-6.72.56-4.79,1.69-6.74c1.13-1.95,2.68-3.49,4.67-4.6,1.98-1.11,4.25-1.67,6.79-1.67s4.69.54,6.62,1.62c1.94,1.08,3.46,2.6,4.57,4.57s1.67,4.29,1.67,6.96c0,.25,0,.54-.02.86s-.04.62-.07.91h-21.2v-3.96h18.06l-2.34,1.24c.03-1.46-.27-2.75-.9-3.86-.64-1.11-1.5-1.98-2.6-2.62s-2.36-.95-3.79-.95-2.74.32-3.83.95c-1.1.64-1.95,1.52-2.57,2.64-.62,1.13-.93,2.45-.93,3.98v.95c0,1.52.35,2.88,1.05,4.05.7,1.18,1.68,2.08,2.95,2.72,1.27.64,2.73.95,4.38.95,1.43,0,2.72-.22,3.86-.67,1.14-.44,2.16-1.14,3.05-2.1l3.19,3.67c-1.14,1.33-2.58,2.36-4.31,3.07s-3.71,1.07-5.93,1.07v.02Z"/><path class="cls-1" d="m236.68,68.83l-10.91-25.44h6.19l9.39,22.44h-3.05l9.72-22.44h5.72l-10.91,25.44h-6.15Z"/><path class="cls-1" d="m262.89,78.41c-1.24,0-2.48-.21-3.72-.62s-2.27-.99-3.1-1.72l2.38-4.38c.6.54,1.29.97,2.05,1.29.76.32,1.54.48,2.34.48,1.08,0,1.95-.27,2.62-.81.67-.54,1.29-1.45,1.86-2.72l1.48-3.34.48-.71,9.63-22.49h5.72l-11.91,27.49c-.79,1.91-1.68,3.41-2.64,4.53-.97,1.11-2.05,1.89-3.24,2.33s-2.5.67-3.93.67h-.02Zm5.24-8.67l-11.48-26.35h6.19l9.34,21.97-4.05,4.38Z"/><path class="cls-1" d="m130.17,53.73c4.72-4.57,13.15-4.57,17.87,0,6.69,6.47,11.5,14.27,14.53,15.37.99.36,1.79-1.04,1.44-2.03L140.54,1.01c-.48-1.35-2.39-1.35-2.87,0l-23.47,66.06c-.35.99.45,2.39,1.44,2.03,3.03-1.1,7.85-8.9,14.53-15.37Zm7.77-22.45c4.69-.77,8.69,3.23,7.92,7.92-.47,2.84-2.76,5.13-5.6,5.6-4.69.77-8.69-3.23-7.92-7.92.47-2.84,2.76-5.13,5.6-5.6Z"/></g></svg>