<?xml version="1.0" encoding="utf-8"?>
<!-- Generator: Adobe Illustrator 27.4.0, SVG Export Plug-In . SVG Version: 6.00 Build 0)  -->
<svg version="1.1" id="Layer_2_00000048491470463247709510000018317596481259857317_"
	 xmlns="http://www.w3.org/2000/svg" xmlns:xlink="http://www.w3.org/1999/xlink" x="0px" y="0px" viewBox="0 0 32 32"
	 style="enable-background:new 0 0 32 32;" xml:space="preserve">
<style type="text/css">
	.st0{fill:#FFFFFF;stroke:#FFFFFF;stroke-width:0.3017;stroke-miterlimit:10;}
	.st1{fill:#0000EE;stroke:#0000EE;stroke-width:0.3017;stroke-miterlimit:10;}
	.st2{fill:#0000EE;stroke:#0000EE;stroke-miterlimit:10;}
</style>
<g id="Layer_1-2">
	<path class="st0" d="M11.9,24.8c2.2-2.1,6-2.1,8.2,0c3.1,3,5.3,6.5,6.7,7c0.5,0.2,0.8-0.5,0.7-0.9L16.7,0.6c-0.2-0.6-1.1-0.6-1.3,0
		L4.6,30.9c-0.2,0.5,0.2,1.1,0.7,0.9C6.6,31.3,8.8,27.7,11.9,24.8L11.9,24.8L11.9,24.8z M15.5,14.5c2.1-0.4,4,1.5,3.6,3.6
		c-0.2,1.3-1.3,2.3-2.6,2.6c-2.1,0.4-4-1.5-3.6-3.6C13.1,15.8,14.2,14.7,15.5,14.5z"/>
</g>
<g id="Layer_1-2_00000083072244441546739610000016988859629680569270_">
	<path class="st1" d="M-23.9,24.8c2.2-2.1,6-2.1,8.2,0c3.1,3,5.3,6.5,6.7,7c0.5,0.2,0.8-0.5,0.7-0.9L-19.1,0.6
		c-0.2-0.6-1.1-0.6-1.3,0l-10.7,30.2c-0.2,0.5,0.2,1.1,0.7,0.9C-29.2,31.3-26.9,27.7-23.9,24.8L-23.9,24.8L-23.9,24.8z M-20.3,14.5
		c2.1-0.4,4,1.5,3.6,3.6c-0.2,1.3-1.3,2.3-2.6,2.6c-2.1,0.4-4-1.5-3.6-3.6C-22.7,15.8-21.6,14.7-20.3,14.5z"/>
</g>
<g id="Layer_1-2_00000062897884304311283150000013890305555314328992_">
	<path class="st2" d="M-167.5,45.1c7.2-6.9,19.9-6.9,27.1,0c10.1,9.8,17.5,21.7,22.1,23.3c1.5,0.5,2.7-1.6,2.2-3.1l-35.6-100.3
		c-0.7-2-3.6-2-4.4,0l-35.6,100.3c-0.5,1.5,0.7,3.6,2.2,3.1C-185,66.7-177.7,54.9-167.5,45.1L-167.5,45.1L-167.5,45.1z M-155.7,11
		c7.1-1.2,13.2,4.9,12,12c-0.7,4.3-4.2,7.8-8.5,8.5c-7.1,1.2-13.2-4.9-12-12C-163.5,15.2-160,11.7-155.7,11z"/>
</g>
</svg>
