<?xml version="1.0" encoding="utf-8"?>
<!-- Generator: Adobe Illustrator 27.4.0, SVG Export Plug-In . SVG Version: 6.00 Build 0)  -->
<svg version="1.1" id="Layer_2_00000078037006298832218190000008928276497798420667_"
	 xmlns="http://www.w3.org/2000/svg" xmlns:xlink="http://www.w3.org/1999/xlink" x="0px" y="0px" viewBox="0 0 256 256"
	 style="enable-background:new 0 0 256 256;" xml:space="preserve">
<style type="text/css">
	.st0{fill:#FFFFFF;}
	.st1{fill:#0000EE;}
</style>
<g id="Layer_1-2_00000157997492741518622590000007476946891116246935_">
	<path class="st0" d="M94.9,198.9c17.5-16.9,48.7-16.9,66.1,0c24.8,24,42.6,52.8,53.8,56.9c3.7,1.3,6.6-3.8,5.3-7.5L133.3,3.8
		c-1.8-5-8.9-5-10.6,0L35.8,248.3c-1.3,3.7,1.7,8.9,5.3,7.5C52.3,251.7,70.2,222.9,94.9,198.9L94.9,198.9z M123.7,115.8
		c17.4-2.8,32.2,11.9,29.3,29.3c-1.7,10.5-10.2,19-20.7,20.7c-17.4,2.8-32.2-11.9-29.3-29.3C104.7,126,113.2,117.5,123.7,115.8z"/>
</g>
<g id="Layer_1-2_00000081643923305190161930000008645769850913433989_">
	<path class="st1" d="M-220.5,198.9c17.5-16.9,48.7-16.9,66.1,0c24.8,24,42.6,52.8,53.8,56.9c3.7,1.3,6.6-3.8,5.3-7.5L-182.2,3.8
		c-1.8-5-8.9-5-10.6,0l-86.9,244.5c-1.3,3.7,1.7,8.9,5.3,7.5C-263.1,251.7-245.3,222.9-220.5,198.9L-220.5,198.9z M-191.8,115.8
		c17.4-2.8,32.2,11.9,29.3,29.3c-1.7,10.5-10.2,19-20.7,20.7c-17.4,2.8-32.2-11.9-29.3-29.3C-210.8,126-202.3,117.5-191.8,115.8z"/>
</g>
</svg>
