<?xml version="1.0" encoding="UTF-8"?><svg id="Layer_2" xmlns="http://www.w3.org/2000/svg" viewBox="0 0 32 32"><defs><style>.cls-1{fill:#00e;stroke:#00e;stroke-miterlimit:10;stroke-width:.3px;}</style></defs><g id="Layer_1-2"><path class="cls-1" d="m11.91,24.77c2.16-2.09,6.02-2.09,8.18,0,3.06,2.96,5.27,6.54,6.65,7.04.45.16.82-.48.66-.93L16.66.63c-.22-.62-1.09-.62-1.32,0L4.6,30.87c-.16.45.21,1.09.66.93,1.39-.5,3.59-4.08,6.65-7.04h0Zm3.56-10.28c2.15-.35,3.98,1.48,3.63,3.63-.21,1.3-1.26,2.35-2.56,2.56-2.15.35-3.98-1.48-3.63-3.63.21-1.3,1.26-2.35,2.56-2.56Z"/></g></svg>