<?xml version="1.0" encoding="UTF-8"?><svg id="Layer_2" xmlns="http://www.w3.org/2000/svg" viewBox="0 0 161.45 130.9"><defs><style>.cls-1,.cls-2{fill:#fff;}.cls-3{letter-spacing:0em;}.cls-4{letter-spacing:-.01em;}.cls-5{letter-spacing:.07em;}.cls-6{letter-spacing:0em;}.cls-2{font-family:Montserrat-Light, Montserrat;font-size:35px;font-weight:300;}</style></defs><g id="Layer_1-2"><path class="cls-1" d="m68.99,70.78c6.22-6.02,17.32-6.02,23.54,0,8.81,8.53,15.15,18.8,19.14,20.25,1.3.47,2.35-1.37,1.89-2.68L82.65,1.33c-.63-1.78-3.15-1.78-3.78,0l-30.91,87.01c-.46,1.31.59,3.15,1.89,2.68,3.99-1.45,10.34-11.72,19.14-20.25Zm10.24-29.57c6.18-1.01,11.45,4.25,10.43,10.43-.61,3.74-3.63,6.76-7.37,7.37-6.18,1.01-11.45-4.25-10.43-10.43.61-3.74,3.63-6.76,7.37-7.37Z"/><text class="cls-2" transform="translate(0 121.83)"><tspan x="0" y="0">Al</tspan><tspan class="cls-4" x="33.81" y="0">e</tspan><tspan x="54.18" y="0">x </tspan><tspan class="cls-3" x="81.34" y="0">L</tspan><tspan class="cls-6" x="101.5" y="0">e</tspan><tspan class="cls-5" x="122.04" y="0">v</tspan><tspan x="142.97" y="0">y</tspan></text></g></svg>