<?xml version="1.0" encoding="UTF-8"?><svg id="Layer_2" xmlns="http://www.w3.org/2000/svg" viewBox="0 0 65.83 91.1"><defs><style>.cls-1{fill:#00e;}</style></defs><g id="Layer_1-2"><path class="cls-1" d="m21.15,70.78c6.22-6.02,17.32-6.02,23.54,0,8.81,8.53,15.15,18.8,19.14,20.25,1.3.47,2.35-1.37,1.89-2.68L34.81,1.33c-.63-1.78-3.15-1.78-3.78,0L.11,88.35c-.46,1.31.59,3.15,1.89,2.68,3.99-1.45,10.34-11.72,19.14-20.25Zm10.24-29.57c6.18-1.01,11.45,4.25,10.43,10.43-.61,3.74-3.63,6.76-7.37,7.37-6.18,1.01-11.45-4.25-10.43-10.43.61-3.74,3.63-6.76,7.37-7.37Z"/></g></svg>