<?xml version="1.0" encoding="UTF-8"?><svg id="Layer_2" xmlns="http://www.w3.org/2000/svg" viewBox="0 0 126 52.04"><defs><style>.cls-1{fill:#e2762b;}.cls-2{fill:#222;}.cls-3{fill:#9aca3c;}</style></defs><g id="Type"><polygon id="FINAL" class="cls-2" points="120.23 36.71 113.91 36.71 113.15 37.47 109.86 34.18 107.01 33.86 103.24 37.63 103.33 37.71 107.95 33.1 107.95 29.36 106.08 27.49 107.95 25.62 107.95 23.75 101.57 17.38 92.23 17.38 90.36 19.25 88.49 17.38 84.75 17.38 81.95 20.18 79.15 17.38 75.41 17.38 73.54 19.25 71.67 17.38 66.94 17.38 66.94 15.72 64.14 12.92 65.07 11.98 65.07 10.11 64.14 9.18 66.94 6.38 66.94 4.51 62.43 0 49.35 0 47.48 1.87 45.62 0 36.27 0 34.4 1.87 32.54 0 28.8 0 26 2.8 23.19 0 19.46 0 17.59 1.87 15.72 0 8.24 0 0 8.24 0 13.85 8.24 22.09 15.72 22.09 18.52 19.29 21.32 22.09 26.06 22.09 26.06 34.96 30.57 39.47 34.3 39.47 37.1 36.67 39.91 39.47 43.65 39.47 44.58 38.54 45.51 39.47 49.25 39.47 52.05 36.67 54.86 39.47 58.59 39.47 61.4 36.67 64.2 39.47 71.67 39.47 73.54 37.6 75.41 39.47 79.15 39.47 79.91 38.71 79.91 47.54 84.41 52.04 92 52.04 94 50.05 96 52.04 102.32 52.04 104.83 49.54 107.33 52.04 109.86 52.04 111.88 50.02 113.91 52.04 121.49 52.04 126 47.54 126 42.48 120.23 36.71"/><path class="cls-3" d="m84.38,47.5v-8.84h7.58v1.26h1.26v2.52h-1.26v1.26h1.26v2.52h-1.26v1.26h-7.58Zm2.53-5.05h3.79v-2.52h-3.79v2.52Zm0,3.79h3.79v-2.52h-3.79v2.52Z"/><path class="cls-3" d="m95.94,47.5v-1.26h-1.26v-3.79h1.26v-1.26h6.31v1.26h1.26v2.53h-6.31v1.26h5.05v1.26h-6.31Zm1.26-3.79h3.79v-1.26h-3.79v1.26Z"/><path class="cls-3" d="m107.25,47.5v-5.05h-2.52v-1.26h2.52v-2.52h2.53v2.52h2.52v1.26h-2.52v5.05h-2.53Z"/><path class="cls-3" d="m113.82,47.5v-1.26h-1.26v-1.26h1.26v-1.26h5.05v-1.26h-5.05v-1.26h6.31v1.26h1.26v5.05h-7.57Zm1.26-1.26h3.79v-1.26h-3.79v1.26Z"/><path class="cls-1" d="m30.62,34.95v-13.06h3.73v5.6h5.6v-5.6h3.73v13.06h-3.73v-5.6h-5.6v5.6h-3.73Z"/><path class="cls-1" d="m45.54,34.95v-9.33h1.87v-1.87h1.87v-1.87h5.6v1.87h1.87v1.87h1.87v9.33h-3.73v-3.73h-5.6v3.73h-3.73Zm3.73-5.6h5.6v-3.73h-1.87v-1.87h-1.87v1.87h-1.87v3.73Z"/><path class="cls-1" d="m64.2,34.95v-1.87h-1.87v-1.87h-1.87v-5.6h1.87v-1.87h1.87v-1.87h7.46v1.87h1.87v1.87h-3.73v-1.87h-3.73v1.87h-1.87v5.6h1.87v1.87h3.73v-1.87h3.73v1.87h-1.87v1.87h-7.46Z"/><path class="cls-1" d="m75.39,34.95v-13.06h3.73v5.6h1.87v-1.87h1.87v-1.87h1.87v-1.87h3.73v1.87h-1.87v1.87h-1.87v1.87h-1.87v1.87h1.87v1.87h1.87v1.87h1.87v1.87h-5.6v-1.87h-1.87v-1.87h-1.87v3.73h-3.73Z"/><path class="cls-1" d="m92.18,34.95v-1.87h-1.87v-1.87h3.73v1.87h5.6v-3.73h-7.46v-1.87h-1.87v-3.73h1.87v-1.87h9.33v1.87h1.87v1.87h-3.73v-1.87h-5.6v3.73h7.46v1.87h1.87v3.73h-1.87v1.87h-9.33Z"/><path class="cls-1" d="m49.38,17.6V4.54h13.06v1.87h-9.33v3.73h7.46v1.87h-7.46v3.73h9.33v1.87h-13.06Z"/><path class="cls-1" d="m8.34,17.6v-1.87h-1.87v-1.87h-1.87v-5.6h1.87v-1.87h1.87v-1.87h7.46v1.87h1.87v1.87h-3.73v-1.87h-3.73v1.87h-1.87v5.6h1.87v1.87h3.73v-1.87h3.73v1.87h-1.87v1.87h-7.46Z"/><path class="cls-1" d="m21.39,17.6v-1.87h-1.87V4.54h3.73v11.19h5.6V4.54h3.73v11.19h-1.87v1.87h-9.33Z"/><path class="cls-1" d="m36.32,17.6v-1.87h-1.87v-1.87h3.73v1.87h5.6v-3.73h-7.46v-1.87h-1.87v-3.73h1.87v-1.87h9.33v1.87h1.87v1.87h-3.73v-1.87h-5.6v3.73h7.46v1.87h1.87v3.73h-1.87v1.87h-9.33Z"/></g></svg>