<?xml version="1.0" encoding="UTF-8"?><svg id="Layer_2" xmlns="http://www.w3.org/2000/svg" viewBox="0 0 256 256"><defs><style>.cls-1{fill:#fff;}</style></defs><g id="Layer_1-2"><path class="cls-1" d="m94.94,198.89c17.48-16.91,48.67-16.91,66.14,0,24.75,23.97,42.57,52.82,53.78,56.9,3.65,1.32,6.6-3.85,5.31-7.53L133.32,3.75c-1.77-5-8.85-5-10.62,0L35.82,248.26c-1.29,3.68,1.66,8.85,5.31,7.53,11.21-4.07,29.05-32.93,53.78-56.9h.03Zm28.77-83.09c17.36-2.84,32.17,11.94,29.31,29.31-1.71,10.51-10.2,18.99-20.71,20.71-17.36,2.84-32.17-11.94-29.31-29.31,1.71-10.51,10.2-18.99,20.71-20.71Z"/></g></svg>